<svg width="20" height="20" viewBox="0 0 20 20" fill="none" xmlns="http://www.w3.org/2000/svg">
<mask id="mask0_1920_3142" style="mask-type:alpha" maskUnits="userSpaceOnUse" x="0" y="0" width="20" height="20">
<rect width="20" height="20" fill="#D9D9D9"/>
</mask>
<g mask="url(#mask0_1920_3142)">
<path d="M9.99996 11.1667L12.4166 13.5834C12.5694 13.7361 12.7638 13.8125 13 13.8125C13.2361 13.8125 13.4305 13.7361 13.5833 13.5834C13.7361 13.4306 13.8125 13.2361 13.8125 13C13.8125 12.7639 13.7361 12.5695 13.5833 12.4167L11.1666 10L13.5833 7.58335C13.7361 7.43058 13.8125 7.23613 13.8125 7.00002C13.8125 6.76391 13.7361 6.56947 13.5833 6.41669C13.4305 6.26391 13.2361 6.18752 13 6.18752C12.7638 6.18752 12.5694 6.26391 12.4166 6.41669L9.99996 8.83335L7.58329 6.41669C7.43052 6.26391 7.23607 6.18752 6.99996 6.18752C6.76385 6.18752 6.5694 6.26391 6.41663 6.41669C6.26385 6.56947 6.18746 6.76391 6.18746 7.00002C6.18746 7.23613 6.26385 7.43058 6.41663 7.58335L8.83329 10L6.41663 12.4167C6.26385 12.5695 6.18746 12.7639 6.18746 13C6.18746 13.2361 6.26385 13.4306 6.41663 13.5834C6.5694 13.7361 6.76385 13.8125 6.99996 13.8125C7.23607 13.8125 7.43052 13.7361 7.58329 13.5834L9.99996 11.1667ZM9.99996 18.3334C8.84718 18.3334 7.76385 18.1146 6.74996 17.6771C5.73607 17.2396 4.85413 16.6459 4.10413 15.8959C3.35413 15.1459 2.76038 14.2639 2.32288 13.25C1.88538 12.2361 1.66663 11.1528 1.66663 10C1.66663 8.84724 1.88538 7.76391 2.32288 6.75002C2.76038 5.73613 3.35413 4.85419 4.10413 4.10419C4.85413 3.35419 5.73607 2.76044 6.74996 2.32294C7.76385 1.88544 8.84718 1.66669 9.99996 1.66669C11.1527 1.66669 12.2361 1.88544 13.25 2.32294C14.2638 2.76044 15.1458 3.35419 15.8958 4.10419C16.6458 4.85419 17.2395 5.73613 17.677 6.75002C18.1145 7.76391 18.3333 8.84724 18.3333 10C18.3333 11.1528 18.1145 12.2361 17.677 13.25C17.2395 14.2639 16.6458 15.1459 15.8958 15.8959C15.1458 16.6459 14.2638 17.2396 13.25 17.6771C12.2361 18.1146 11.1527 18.3334 9.99996 18.3334Z" fill="#9194A1"/>
</g>
</svg>
